<?xml version="1.0" encoding="UTF-8"?>
<svg xmlns="http://www.w3.org/2000/svg" xmlns:xlink="http://www.w3.org/1999/xlink" width="367.98pt" height="66.06pt" viewBox="0 0 367.98 66.06" version="1.1">
<g id="surface1">
<path style=" stroke:none;fill-rule:nonzero;fill:rgb(18.03894%,69.020081%,74.902344%);fill-opacity:1;" d="M 93.78125 19.089844 L 93.78125 43.308594 L 91.394531 43.308594 L 91.394531 31.980469 L 77.03125 31.980469 L 77.03125 43.308594 L 74.679688 43.308594 L 74.679688 19.089844 L 77.03125 19.089844 L 77.03125 29.867188 L 91.394531 29.867188 L 91.394531 19.089844 L 93.78125 19.089844 "/>
<path style=" stroke:none;fill-rule:nonzero;fill:rgb(18.03894%,69.020081%,74.902344%);fill-opacity:1;" d="M 104.570312 19.089844 L 112.519531 32.121094 L 120.5 19.089844 L 123.09375 19.089844 L 113.679688 34.300781 L 113.679688 43.308594 L 111.324219 43.308594 L 111.324219 34.234375 L 101.980469 19.089844 L 104.570312 19.089844 "/>
<path style=" stroke:none;fill-rule:nonzero;fill:rgb(18.03894%,69.020081%,74.902344%);fill-opacity:1;" d="M 133.644531 32.253906 L 141.386719 32.253906 C 142.09375 32.253906 142.734375 32.101562 143.316406 31.792969 C 143.894531 31.488281 144.390625 31.078125 144.800781 30.566406 C 145.207031 30.054688 145.527344 29.464844 145.753906 28.792969 C 145.980469 28.125 146.09375 27.425781 146.09375 26.695312 C 146.09375 25.945312 145.964844 25.234375 145.703125 24.5625 C 145.441406 23.894531 145.089844 23.304688 144.644531 22.804688 C 144.203125 22.308594 143.679688 21.914062 143.074219 21.628906 C 142.472656 21.347656 141.84375 21.203125 141.183594 21.203125 L 133.644531 21.203125 Z M 131.289062 43.308594 L 131.289062 19.089844 L 141.320312 19.089844 C 142.363281 19.089844 143.324219 19.308594 144.203125 19.753906 C 145.078125 20.195312 145.835938 20.777344 146.472656 21.492188 C 147.105469 22.210938 147.601562 23.023438 147.953125 23.933594 C 148.308594 24.84375 148.484375 25.761719 148.484375 26.695312 C 148.484375 27.695312 148.316406 28.65625 147.988281 29.578125 C 147.65625 30.5 147.1875 31.3125 146.570312 32.015625 C 145.957031 32.722656 145.226562 33.292969 144.371094 33.722656 C 143.519531 34.15625 142.570312 34.371094 141.523438 34.371094 L 133.644531 34.371094 L 133.644531 43.308594 L 131.289062 43.308594 "/>
<path style=" stroke:none;fill-rule:nonzero;fill:rgb(18.03894%,69.020081%,74.902344%);fill-opacity:1;" d="M 173.382812 41.191406 L 173.382812 43.308594 L 157.113281 43.308594 L 157.113281 19.089844 L 173.078125 19.089844 L 173.078125 21.203125 L 159.46875 21.203125 L 159.46875 29.9375 L 171.339844 29.9375 L 171.339844 31.949219 L 159.46875 31.949219 L 159.46875 41.191406 L 173.382812 41.191406 "/>
<path style=" stroke:none;fill-rule:nonzero;fill:rgb(18.03894%,69.020081%,74.902344%);fill-opacity:1;" d="M 184.585938 32.253906 L 192.53125 32.253906 C 193.238281 32.253906 193.882812 32.101562 194.460938 31.792969 C 195.042969 31.488281 195.535156 31.074219 195.945312 30.550781 C 196.355469 30.027344 196.671875 29.4375 196.898438 28.777344 C 197.128906 28.117188 197.242188 27.425781 197.242188 26.695312 C 197.242188 25.96875 197.109375 25.269531 196.847656 24.597656 C 196.589844 23.925781 196.234375 23.339844 195.789062 22.839844 C 195.347656 22.339844 194.824219 21.941406 194.222656 21.644531 C 193.621094 21.351562 192.988281 21.203125 192.328125 21.203125 L 184.585938 21.203125 Z M 182.230469 43.308594 L 182.230469 19.089844 L 192.433594 19.089844 C 193.476562 19.089844 194.445312 19.308594 195.332031 19.753906 C 196.21875 20.195312 196.980469 20.777344 197.617188 21.492188 C 198.253906 22.210938 198.746094 23.023438 199.101562 23.933594 C 199.453125 24.84375 199.628906 25.761719 199.628906 26.695312 C 199.628906 27.582031 199.5 28.429688 199.238281 29.238281 C 198.976562 30.046875 198.605469 30.773438 198.128906 31.421875 C 197.652344 32.066406 197.082031 32.613281 196.421875 33.058594 C 195.761719 33.5 195.023438 33.804688 194.203125 33.960938 L 200.175781 43.308594 L 197.480469 43.308594 L 191.75 34.371094 L 184.585938 34.371094 L 184.585938 43.308594 L 182.230469 43.308594 "/>
<path style=" stroke:none;fill-rule:nonzero;fill:rgb(5.097961%,39.607239%,48.626709%);fill-opacity:1;" d="M 218.710938 19.257812 L 220.996094 19.257812 L 224.40625 27.855469 L 225.109375 29.59375 L 229.746094 40.546875 L 238.515625 19.089844 L 241.105469 19.089844 L 230.871094 43.308594 L 228.757812 43.308594 L 223.675781 31.335938 L 222.9375 29.59375 L 218.710938 19.257812 "/>
<path style=" stroke:none;fill-rule:nonzero;fill:rgb(18.03894%,69.020081%,74.902344%);fill-opacity:1;" d="M 255.628906 21.886719 L 247.03125 43.308594 L 244.507812 43.308594 L 254.636719 19.089844 L 256.582031 19.089844 L 266.714844 43.308594 L 264.15625 43.308594 L 255.628906 21.886719 "/>
<path style=" stroke:none;fill-rule:nonzero;fill:rgb(18.03894%,69.020081%,74.902344%);fill-opacity:1;" d="M 274.992188 43.308594 L 274.992188 19.089844 L 277.34375 19.089844 L 277.34375 41.191406 L 291.363281 41.191406 L 291.363281 43.308594 L 274.992188 43.308594 "/>
<path style=" stroke:none;fill-rule:nonzero;fill:rgb(18.03894%,69.020081%,74.902344%);fill-opacity:1;" d="M 299.78125 43.308594 L 299.78125 19.089844 L 302.136719 19.089844 L 302.136719 41.191406 L 316.15625 41.191406 L 316.15625 43.308594 L 299.78125 43.308594 "/>
<path style=" stroke:none;fill-rule:nonzero;fill:rgb(18.03894%,69.020081%,74.902344%);fill-opacity:1;" d="M 340.84375 41.191406 L 340.84375 43.308594 L 324.570312 43.308594 L 324.570312 19.089844 L 340.535156 19.089844 L 340.535156 21.203125 L 326.925781 21.203125 L 326.925781 29.9375 L 338.796875 29.9375 L 338.796875 31.949219 L 326.925781 31.949219 L 326.925781 41.191406 L 340.84375 41.191406 "/>
<path style=" stroke:none;fill-rule:nonzero;fill:rgb(18.03894%,69.020081%,74.902344%);fill-opacity:1;" d="M 367.976562 21.203125 L 359.347656 21.203125 L 359.347656 43.308594 L 356.960938 43.308594 L 356.960938 21.203125 L 348.328125 21.203125 L 348.328125 19.089844 L 367.976562 19.089844 L 367.976562 21.203125 "/>
<path style=" stroke:none;fill-rule:nonzero;fill:rgb(18.03894%,69.020081%,74.902344%);fill-opacity:1;" d="M 222.855469 27.855469 L 226.300781 19.257812 L 228.550781 19.257812 L 224.320312 29.59375 L 223.675781 31.335938 L 218.558594 43.308594 L 216.441406 43.308594 L 206.242188 19.089844 L 208.769531 19.089844 L 217.570312 40.546875 L 222.171875 29.59375 L 222.855469 27.855469 "/>
<path style=" stroke:none;fill-rule:nonzero;fill:rgb(18.03894%,69.020081%,74.902344%);fill-opacity:1;" d="M 251.6875 50.589844 L 259.535156 50.589844 L 259.535156 48.554688 L 251.6875 48.554688 Z M 251.6875 50.589844 "/>
<path style=" stroke:none;fill-rule:nonzero;fill:rgb(18.03894%,69.020081%,74.902344%);fill-opacity:1;" d="M 49.359375 56.347656 L 39.542969 56.347656 L 39.542969 9.707031 L 49.359375 9.707031 Z M 36.089844 45.867188 L 26.269531 45.867188 L 26.269531 33.027344 L 36.089844 33.027344 Z M 22.816406 56.347656 L 12.996094 56.347656 L 12.996094 9.707031 L 22.816406 9.707031 Z M 55.878906 -0.00390625 L 6.476562 -0.00390625 C 2.898438 -0.00390625 0 2.894531 0 6.472656 L 0 59.582031 C 0 63.160156 2.898438 66.058594 6.476562 66.058594 L 55.878906 66.058594 C 59.457031 66.058594 62.359375 63.160156 62.359375 59.582031 L 62.359375 6.472656 C 62.359375 2.894531 59.457031 -0.00390625 55.878906 -0.00390625 "/>
</g>
</svg>
